<mxfile host="app.diagrams.net" modified="2022-06-02T17:41:55.647Z" agent="5.0 (Windows NT 10.0; WOW64) AppleWebKit/537.36 (KHTML, like Gecko) Chrome/100.0.4896.143 YaBrowser/22.5.0.1816 Yowser/2.5 Safari/537.36" etag="uQL7IlfMj7c7kYAzJMxY" version="18.2.1" type="github">
  <diagram id="prtHgNgQTEPvFCAcTncT" name="Page-1">
    <mxGraphModel dx="868" dy="477" grid="1" gridSize="10" guides="1" tooltips="1" connect="1" arrows="1" fold="1" page="1" pageScale="1" pageWidth="827" pageHeight="1169" math="0" shadow="0">
      <root>
        <mxCell id="0" />
        <mxCell id="1" parent="0" />
        <mxCell id="f_L7WgfWDhlK9kTsPKeU-1" value="&lt;div style=&quot;text-align: center;&quot;&gt;&lt;font style=&quot;font-size: 24px;&quot;&gt;&lt;b&gt;&amp;nbsp; &amp;nbsp; &amp;nbsp; &amp;nbsp; &amp;nbsp;matrícula&lt;/b&gt;&lt;/font&gt;&lt;/div&gt;&lt;div&gt;&lt;font size=&quot;3&quot;&gt;&lt;br&gt;&lt;/font&gt;&lt;/div&gt;&lt;div&gt;&lt;font size=&quot;3&quot;&gt;&amp;nbsp; &amp;nbsp; id: serial,&lt;/font&gt;&lt;/div&gt;&lt;div&gt;&lt;font size=&quot;3&quot;&gt;&lt;br&gt;&lt;/font&gt;&lt;/div&gt;&lt;div&gt;&lt;font size=&quot;3&quot;&gt;&amp;nbsp; &amp;nbsp; number: int&lt;/font&gt;&lt;/div&gt;" style="rounded=0;whiteSpace=wrap;html=1;align=left;" parent="1" vertex="1">
          <mxGeometry x="580" y="300" width="210" height="170" as="geometry" />
        </mxCell>
        <mxCell id="f_L7WgfWDhlK9kTsPKeU-2" value="&lt;div&gt;&lt;font style=&quot;font-size: 24px;&quot;&gt;&lt;b&gt;car_matrícula&lt;/b&gt;&lt;/font&gt;&lt;/div&gt;&lt;div&gt;&lt;font style=&quot;font-size: 18px;&quot;&gt;&lt;b style=&quot;&quot;&gt;&lt;br&gt;&lt;/b&gt;&lt;/font&gt;&lt;/div&gt;&lt;div style=&quot;text-align: left;&quot;&gt;&lt;font size=&quot;3&quot;&gt;&amp;nbsp; &amp;nbsp; id: serial primary key,&lt;/font&gt;&lt;/div&gt;&lt;div style=&quot;text-align: left;&quot;&gt;&lt;font size=&quot;3&quot;&gt;&lt;br&gt;&lt;/font&gt;&lt;/div&gt;&lt;div style=&quot;text-align: left;&quot;&gt;&lt;font size=&quot;3&quot;&gt;&amp;nbsp; &amp;nbsp; car_id: int&amp;nbsp;&lt;/font&gt;&lt;/div&gt;&lt;div style=&quot;text-align: left;&quot;&gt;&lt;font size=&quot;3&quot;&gt;&lt;br&gt;&lt;/font&gt;&lt;/div&gt;&lt;div style=&quot;text-align: left;&quot;&gt;&lt;font size=&quot;3&quot;&gt;&amp;nbsp; &amp;nbsp; matrícula_id: int&amp;nbsp;&lt;/font&gt;&lt;/div&gt;" style="rounded=0;whiteSpace=wrap;html=1;" parent="1" vertex="1">
          <mxGeometry x="309" y="300" width="210" height="170" as="geometry" />
        </mxCell>
        <mxCell id="f_L7WgfWDhlK9kTsPKeU-3" value="&lt;div style=&quot;&quot;&gt;&lt;span style=&quot;font-size: 24px;&quot;&gt;&lt;b&gt;car&lt;/b&gt;&lt;/span&gt;&lt;/div&gt;&lt;div style=&quot;text-align: left;&quot;&gt;&lt;font size=&quot;3&quot;&gt;&lt;br&gt;&lt;/font&gt;&lt;/div&gt;&lt;div style=&quot;text-align: left;&quot;&gt;&lt;font size=&quot;3&quot;&gt;&amp;nbsp; &amp;nbsp; id: serial,&lt;/font&gt;&lt;/div&gt;&lt;div style=&quot;text-align: left;&quot;&gt;&lt;font size=&quot;3&quot;&gt;&lt;br&gt;&lt;/font&gt;&lt;/div&gt;&lt;div style=&quot;text-align: left;&quot;&gt;&lt;font size=&quot;3&quot;&gt;&amp;nbsp; &amp;nbsp; name: varchar(255)&lt;/font&gt;&lt;/div&gt;" style="rounded=0;whiteSpace=wrap;html=1;" parent="1" vertex="1">
          <mxGeometry x="50" y="300" width="180" height="170" as="geometry" />
        </mxCell>
        <mxCell id="f_L7WgfWDhlK9kTsPKeU-5" value="" style="endArrow=none;html=1;rounded=0;fontSize=18;exitX=0;exitY=0.25;exitDx=0;exitDy=0;entryX=1;entryY=0.25;entryDx=0;entryDy=0;" parent="1" source="f_L7WgfWDhlK9kTsPKeU-2" target="f_L7WgfWDhlK9kTsPKeU-2" edge="1">
          <mxGeometry width="50" height="50" relative="1" as="geometry">
            <mxPoint x="390" y="330" as="sourcePoint" />
            <mxPoint x="440" y="280" as="targetPoint" />
          </mxGeometry>
        </mxCell>
        <mxCell id="f_L7WgfWDhlK9kTsPKeU-6" value="" style="endArrow=none;html=1;rounded=0;fontSize=18;" parent="1" edge="1">
          <mxGeometry width="50" height="50" relative="1" as="geometry">
            <mxPoint x="580" y="369" as="sourcePoint" />
            <mxPoint x="790" y="369" as="targetPoint" />
          </mxGeometry>
        </mxCell>
        <mxCell id="CW4v3kTFNXJbYwDn07G8-2" value="" style="endArrow=none;html=1;rounded=0;exitX=-0.003;exitY=0.384;exitDx=0;exitDy=0;exitPerimeter=0;entryX=0.997;entryY=0.375;entryDx=0;entryDy=0;entryPerimeter=0;" parent="1" source="f_L7WgfWDhlK9kTsPKeU-3" target="f_L7WgfWDhlK9kTsPKeU-3" edge="1">
          <mxGeometry width="50" height="50" relative="1" as="geometry">
            <mxPoint x="390" y="430" as="sourcePoint" />
            <mxPoint x="440" y="380" as="targetPoint" />
          </mxGeometry>
        </mxCell>
        <mxCell id="CW4v3kTFNXJbYwDn07G8-3" value="&lt;span style=&quot;font-size: 24px;&quot;&gt;&lt;b&gt;one-to-one&lt;/b&gt;&lt;/span&gt;" style="rounded=1;whiteSpace=wrap;html=1;strokeWidth=0;" parent="1" vertex="1">
          <mxGeometry x="320" y="160" width="180" height="70" as="geometry" />
        </mxCell>
        <mxCell id="CW4v3kTFNXJbYwDn07G8-4" value="&lt;font style=&quot;font-size: 20px;&quot;&gt;1&lt;/font&gt;" style="html=1;verticalAlign=bottom;startArrow=oval;startFill=1;endArrow=block;startSize=8;rounded=0;entryX=1.002;entryY=0.543;entryDx=0;entryDy=0;entryPerimeter=0;exitX=-0.006;exitY=0.641;exitDx=0;exitDy=0;exitPerimeter=0;" parent="1" target="f_L7WgfWDhlK9kTsPKeU-3" edge="1" source="f_L7WgfWDhlK9kTsPKeU-2">
          <mxGeometry width="60" relative="1" as="geometry">
            <mxPoint x="300" y="440" as="sourcePoint" />
            <mxPoint x="370" y="450" as="targetPoint" />
          </mxGeometry>
        </mxCell>
        <mxCell id="CW4v3kTFNXJbYwDn07G8-5" value="1" style="html=1;verticalAlign=bottom;startArrow=oval;startFill=1;endArrow=block;startSize=8;rounded=0;fontSize=20;entryX=-0.002;entryY=0.544;entryDx=0;entryDy=0;entryPerimeter=0;" parent="1" target="f_L7WgfWDhlK9kTsPKeU-1" edge="1">
          <mxGeometry width="60" relative="1" as="geometry">
            <mxPoint x="520" y="450" as="sourcePoint" />
            <mxPoint x="390" y="400" as="targetPoint" />
          </mxGeometry>
        </mxCell>
      </root>
    </mxGraphModel>
  </diagram>
</mxfile>
